<mxfile host="65bd71144e">
    <diagram id="-o_TAptExUKpDIhAqyLp" name="Seite-1">
        <mxGraphModel dx="446" dy="1933" grid="1" gridSize="10" guides="1" tooltips="1" connect="1" arrows="1" fold="1" page="1" pageScale="1" pageWidth="827" pageHeight="1169" math="0" shadow="0">
            <root>
                <mxCell id="0"/>
                <mxCell id="1" parent="0"/>
                <mxCell id="10" value="&lt;font style=&quot;&quot;&gt;&lt;br&gt;&lt;b style=&quot;&quot;&gt;&lt;font style=&quot;font-size: 24px;&quot;&gt;Artivity&lt;/font&gt;&lt;/b&gt;&lt;/font&gt;" style="html=1;align=center;verticalAlign=middle;dashed=0;" parent="1" vertex="1">
                    <mxGeometry x="210" y="-290" width="990" height="1720" as="geometry"/>
                </mxCell>
                <mxCell id="6" value="" style="edgeStyle=none;html=1;entryX=0.269;entryY=0.967;entryDx=0;entryDy=0;entryPerimeter=0;" parent="1" source="2" target="7" edge="1">
                    <mxGeometry relative="1" as="geometry">
                        <mxPoint x="570" y="496.25" as="targetPoint"/>
                    </mxGeometry>
                </mxCell>
                <mxCell id="22" style="edgeStyle=none;html=1;entryX=0.067;entryY=0.714;entryDx=0;entryDy=0;entryPerimeter=0;fontSize=18;" parent="1" source="2" target="15" edge="1">
                    <mxGeometry relative="1" as="geometry"/>
                </mxCell>
                <mxCell id="24" style="edgeStyle=none;html=1;fontSize=18;" parent="1" source="2" target="23" edge="1">
                    <mxGeometry relative="1" as="geometry"/>
                </mxCell>
                <mxCell id="41" style="edgeStyle=none;html=1;fontSize=18;" parent="1" source="2" target="39" edge="1">
                    <mxGeometry relative="1" as="geometry"/>
                </mxCell>
                <mxCell id="79" style="edgeStyle=none;html=1;fontSize=14;" parent="1" source="2" target="78" edge="1">
                    <mxGeometry relative="1" as="geometry"/>
                </mxCell>
                <mxCell id="88" style="edgeStyle=none;html=1;fontSize=14;" parent="1" source="2" target="87" edge="1">
                    <mxGeometry relative="1" as="geometry"/>
                </mxCell>
                <mxCell id="2" value="User" style="shape=umlActor;verticalLabelPosition=bottom;verticalAlign=top;html=1;" parent="1" vertex="1">
                    <mxGeometry x="130" y="410" width="30" height="60" as="geometry"/>
                </mxCell>
                <mxCell id="7" value="kann sich mit einem Username und einem geschützten Passwort registrieren und anmelden." style="ellipse;whiteSpace=wrap;html=1;fillColor=#fff2cc;strokeColor=#d6b656;" parent="1" vertex="1">
                    <mxGeometry x="360" y="-240" width="290" height="90" as="geometry"/>
                </mxCell>
                <mxCell id="9" value="Userprofil erstellen" style="ellipse;fillColor=#fff2cc;strokeColor=#d6b656;" parent="1" vertex="1">
                    <mxGeometry x="750" y="-230" width="190" height="70" as="geometry"/>
                </mxCell>
                <mxCell id="15" value="Posts erstellen" style="ellipse;whiteSpace=wrap;html=1;fillColor=#dae8fc;strokeColor=#6c8ebf;" parent="1" vertex="1">
                    <mxGeometry x="400" y="240" width="150" height="70" as="geometry"/>
                </mxCell>
                <mxCell id="16" value="Hashtags hinzufügen&lt;br&gt;(als Tagging-Mechanik)" style="ellipse;whiteSpace=wrap;html=1;fillColor=#dae8fc;strokeColor=#6c8ebf;" parent="1" vertex="1">
                    <mxGeometry x="400" y="80" width="150" height="70" as="geometry"/>
                </mxCell>
                <mxCell id="17" value="Referenzlinks angeben&lt;br&gt;(Mehrzahl)" style="ellipse;whiteSpace=wrap;html=1;fillColor=#dae8fc;strokeColor=#6c8ebf;" parent="1" vertex="1">
                    <mxGeometry x="400" y="390" width="150" height="70" as="geometry"/>
                </mxCell>
                <mxCell id="18" value="Bilder oder GIFs anhängen&lt;br&gt;(Mehrzahl)" style="ellipse;whiteSpace=wrap;html=1;fillColor=#dae8fc;strokeColor=#6c8ebf;" parent="1" vertex="1">
                    <mxGeometry x="580" y="390" width="170" height="70" as="geometry"/>
                </mxCell>
                <mxCell id="23" value="Kommentare erstellen" style="ellipse;whiteSpace=wrap;html=1;fillColor=#dae8fc;strokeColor=#6c8ebf;" parent="1" vertex="1">
                    <mxGeometry x="400" y="549.5" width="150" height="70" as="geometry"/>
                </mxCell>
                <mxCell id="25" value="&amp;nbsp;Profilbild hochladen&lt;br&gt;(BLOB?)" style="ellipse;whiteSpace=wrap;html=1;fillColor=#fff2cc;strokeColor=#d6b656;" parent="1" vertex="1">
                    <mxGeometry x="1040" y="-230" width="150" height="70" as="geometry"/>
                </mxCell>
                <mxCell id="44" style="edgeStyle=none;html=1;fontSize=18;" parent="1" source="42" target="48" edge="1">
                    <mxGeometry relative="1" as="geometry">
                        <mxPoint x="1260" y="880" as="sourcePoint"/>
                    </mxGeometry>
                </mxCell>
                <mxCell id="39" value="Gruppe gründen" style="ellipse;whiteSpace=wrap;html=1;fillColor=#cdeb8b;strokeColor=#36393d;" parent="1" vertex="1">
                    <mxGeometry x="530" y="1040" width="130" height="70" as="geometry"/>
                </mxCell>
                <mxCell id="80" style="edgeStyle=none;html=1;fontSize=14;" parent="1" source="42" target="78" edge="1">
                    <mxGeometry relative="1" as="geometry"/>
                </mxCell>
                <mxCell id="89" style="edgeStyle=none;html=1;fontSize=14;" parent="1" source="42" target="87" edge="1">
                    <mxGeometry relative="1" as="geometry"/>
                </mxCell>
                <mxCell id="42" value="Gruppen-Admin/a" style="shape=umlActor;verticalLabelPosition=bottom;verticalAlign=top;html=1;fontSize=18;" parent="1" vertex="1">
                    <mxGeometry x="1270" y="970" width="30" height="60" as="geometry"/>
                </mxCell>
                <mxCell id="45" value="Schlagwörter (Kunstrichtung)&lt;br&gt;auswählen" style="ellipse;whiteSpace=wrap;html=1;fillColor=#fff2cc;strokeColor=#d6b656;" parent="1" vertex="1">
                    <mxGeometry x="1010" y="370" width="150" height="70" as="geometry"/>
                </mxCell>
                <mxCell id="47" style="edgeStyle=none;html=1;fontSize=18;" parent="1" source="2" target="46" edge="1">
                    <mxGeometry relative="1" as="geometry"/>
                </mxCell>
                <mxCell id="46" value="andere &lt;br&gt;User taggen" style="ellipse;whiteSpace=wrap;html=1;fillColor=#dae8fc;strokeColor=#6c8ebf;" parent="1" vertex="1">
                    <mxGeometry x="260" y="390" width="120" height="70" as="geometry"/>
                </mxCell>
                <mxCell id="48" value="Gruppen-Admin/a werden" style="ellipse;whiteSpace=wrap;html=1;fillColor=#cdeb8b;strokeColor=#36393d;" parent="1" vertex="1">
                    <mxGeometry x="830" y="1030" width="150" height="70" as="geometry"/>
                </mxCell>
                <mxCell id="50" value="&amp;nbsp;Gruppenbild hochladen&lt;br&gt;(BLOB?)" style="ellipse;whiteSpace=wrap;html=1;fillColor=#cdeb8b;strokeColor=#36393d;" parent="1" vertex="1">
                    <mxGeometry x="830" y="920" width="150" height="70" as="geometry"/>
                </mxCell>
                <mxCell id="62" value="&lt;font style=&quot;font-size: 14px;&quot;&gt;&amp;lt;&amp;lt;include&amp;gt;&amp;gt;&lt;/font&gt;" style="html=1;verticalAlign=bottom;labelBackgroundColor=none;endArrow=open;endFill=0;dashed=1;fontSize=24;" parent="1" source="39" target="48" edge="1">
                    <mxGeometry width="160" relative="1" as="geometry">
                        <mxPoint x="590" y="830" as="sourcePoint"/>
                        <mxPoint x="750" y="830" as="targetPoint"/>
                    </mxGeometry>
                </mxCell>
                <mxCell id="65" value="&amp;lt;&amp;lt;extend&amp;gt;&amp;gt;" style="html=1;verticalAlign=bottom;labelBackgroundColor=none;endArrow=open;endFill=0;dashed=1;fontSize=14;" parent="1" source="45" target="39" edge="1">
                    <mxGeometry width="160" relative="1" as="geometry">
                        <mxPoint x="540" y="710" as="sourcePoint"/>
                        <mxPoint x="700" y="710" as="targetPoint"/>
                    </mxGeometry>
                </mxCell>
                <mxCell id="66" value="&amp;lt;&amp;lt;extend&amp;gt;&amp;gt;" style="html=1;verticalAlign=bottom;labelBackgroundColor=none;endArrow=open;endFill=0;dashed=1;fontSize=14;" parent="1" source="18" target="23" edge="1">
                    <mxGeometry width="160" relative="1" as="geometry">
                        <mxPoint x="540" y="470" as="sourcePoint"/>
                        <mxPoint x="700" y="470" as="targetPoint"/>
                    </mxGeometry>
                </mxCell>
                <mxCell id="67" value="&amp;lt;&amp;lt;extend&amp;gt;&amp;gt;" style="html=1;verticalAlign=bottom;labelBackgroundColor=none;endArrow=open;endFill=0;dashed=1;fontSize=14;" parent="1" source="17" target="23" edge="1">
                    <mxGeometry width="160" relative="1" as="geometry">
                        <mxPoint x="540" y="470" as="sourcePoint"/>
                        <mxPoint x="700" y="470" as="targetPoint"/>
                    </mxGeometry>
                </mxCell>
                <mxCell id="68" value="&amp;lt;&amp;lt;extend&amp;gt;&amp;gt;" style="html=1;verticalAlign=bottom;labelBackgroundColor=none;endArrow=open;endFill=0;dashed=1;fontSize=14;" parent="1" source="46" target="15" edge="1">
                    <mxGeometry width="160" relative="1" as="geometry">
                        <mxPoint x="380" y="470" as="sourcePoint"/>
                        <mxPoint x="540" y="470" as="targetPoint"/>
                    </mxGeometry>
                </mxCell>
                <mxCell id="69" value="&amp;lt;&amp;lt;extend&amp;gt;&amp;gt;" style="html=1;verticalAlign=bottom;labelBackgroundColor=none;endArrow=open;endFill=0;dashed=1;fontSize=14;" parent="1" source="17" target="15" edge="1">
                    <mxGeometry width="160" relative="1" as="geometry">
                        <mxPoint x="380" y="230" as="sourcePoint"/>
                        <mxPoint x="540" y="230" as="targetPoint"/>
                    </mxGeometry>
                </mxCell>
                <mxCell id="70" value="&amp;lt;&amp;lt;extend&amp;gt;&amp;gt;" style="html=1;verticalAlign=bottom;labelBackgroundColor=none;endArrow=open;endFill=0;dashed=1;fontSize=14;" parent="1" source="18" target="15" edge="1">
                    <mxGeometry width="160" relative="1" as="geometry">
                        <mxPoint x="380" y="230" as="sourcePoint"/>
                        <mxPoint x="540" y="230" as="targetPoint"/>
                    </mxGeometry>
                </mxCell>
                <mxCell id="72" value="&amp;lt;&amp;lt;extend&amp;gt;&amp;gt;" style="html=1;verticalAlign=bottom;labelBackgroundColor=none;endArrow=open;endFill=0;dashed=1;fontSize=14;" parent="1" source="16" target="15" edge="1">
                    <mxGeometry width="160" relative="1" as="geometry">
                        <mxPoint x="380" y="230" as="sourcePoint"/>
                        <mxPoint x="540" y="230" as="targetPoint"/>
                    </mxGeometry>
                </mxCell>
                <mxCell id="73" value="&amp;lt;&amp;lt;extend&amp;gt;&amp;gt;" style="html=1;verticalAlign=bottom;labelBackgroundColor=none;endArrow=open;endFill=0;dashed=1;fontSize=14;" parent="1" source="45" target="9" edge="1">
                    <mxGeometry width="160" relative="1" as="geometry">
                        <mxPoint x="590" y="230" as="sourcePoint"/>
                        <mxPoint x="750" y="230" as="targetPoint"/>
                    </mxGeometry>
                </mxCell>
                <mxCell id="74" value="&amp;lt;&amp;lt;extend&amp;gt;&amp;gt;" style="html=1;verticalAlign=bottom;labelBackgroundColor=none;endArrow=open;endFill=0;dashed=1;fontSize=14;" parent="1" source="25" target="9" edge="1">
                    <mxGeometry width="160" relative="1" as="geometry">
                        <mxPoint x="590" y="230" as="sourcePoint"/>
                        <mxPoint x="750" y="230" as="targetPoint"/>
                    </mxGeometry>
                </mxCell>
                <mxCell id="75" value="&amp;lt;&amp;lt;include&amp;gt;&amp;gt;" style="html=1;verticalAlign=bottom;labelBackgroundColor=none;endArrow=open;endFill=0;dashed=1;fontSize=14;" parent="1" source="7" target="9" edge="1">
                    <mxGeometry width="160" relative="1" as="geometry">
                        <mxPoint x="710" y="230" as="sourcePoint"/>
                        <mxPoint x="870" y="230" as="targetPoint"/>
                    </mxGeometry>
                </mxCell>
                <mxCell id="76" value="&amp;lt;&amp;lt;extend&amp;gt;&amp;gt;" style="html=1;verticalAlign=bottom;labelBackgroundColor=none;endArrow=open;endFill=0;dashed=1;fontSize=14;" parent="1" source="50" target="39" edge="1">
                    <mxGeometry width="160" relative="1" as="geometry">
                        <mxPoint x="710" y="590" as="sourcePoint"/>
                        <mxPoint x="870" y="590" as="targetPoint"/>
                    </mxGeometry>
                </mxCell>
                <mxCell id="78" value="Postings und Kommentare&lt;br&gt;&amp;nbsp;innerhalb und&lt;br&gt;außerhalb von &lt;br&gt;Gruppen liken" style="ellipse;whiteSpace=wrap;html=1;fillColor=#dae8fc;strokeColor=#6c8ebf;" parent="1" vertex="1">
                    <mxGeometry x="375" y="650" width="200" height="100" as="geometry"/>
                </mxCell>
                <mxCell id="81" value="&amp;lt;&amp;lt;extend&amp;gt;&amp;gt;" style="html=1;verticalAlign=bottom;labelBackgroundColor=none;endArrow=open;endFill=0;dashed=1;fontSize=14;" parent="1" source="45" target="15" edge="1">
                    <mxGeometry width="160" relative="1" as="geometry">
                        <mxPoint x="560" y="810" as="sourcePoint"/>
                        <mxPoint x="720" y="810" as="targetPoint"/>
                    </mxGeometry>
                </mxCell>
                <mxCell id="87" value="sich in einer Gruppe organisieren" style="ellipse;whiteSpace=wrap;html=1;fillColor=#cdeb8b;strokeColor=#36393d;" parent="1" vertex="1">
                    <mxGeometry x="510" y="1180" width="150" height="70" as="geometry"/>
                </mxCell>
                <mxCell id="90" value="&lt;font style=&quot;font-size: 14px;&quot;&gt;&amp;lt;&amp;lt;extend&amp;gt;&amp;gt;&lt;/font&gt;" style="html=1;verticalAlign=bottom;labelBackgroundColor=none;endArrow=open;endFill=0;dashed=1;" parent="1" source="23" target="46" edge="1">
                    <mxGeometry width="160" relative="1" as="geometry">
                        <mxPoint x="430" y="330" as="sourcePoint"/>
                        <mxPoint x="590" y="330" as="targetPoint"/>
                    </mxGeometry>
                </mxCell>
            </root>
        </mxGraphModel>
    </diagram>
</mxfile>